<svg width="39" height="39" viewBox="0 0 39 39" fill="none" xmlns="http://www.w3.org/2000/svg">
<path d="M5.92857 0.03125C2.93437 0.03125 0.5 2.46562 0.5 5.45982V32.6027C0.5 35.5969 2.93437 38.0312 5.92857 38.0312H33.0714C36.0656 38.0312 38.5 35.5969 38.5 32.6027V5.45982C38.5 2.46562 36.0656 0.03125 33.0714 0.03125H5.92857ZM31.129 7.15625L22.3246 17.2161L32.6812 30.9062H24.5723L18.2277 22.6022L10.9585 30.9062H6.92946L16.3446 20.1424L6.41205 7.15625H14.7246L20.467 14.7478L27.1 7.15625H31.129ZM27.9228 28.4973L13.5116 9.43795H11.1112L25.6835 28.4973H27.9143H27.9228Z" fill="white"/>
</svg>
