<svg width="48" height="49" viewBox="0 0 48 49" fill="none" xmlns="http://www.w3.org/2000/svg">
<path opacity="0.5" d="M6.85714 0.03125C3.075 0.03125 0 3.10625 0 6.88839V41.1741C0 44.9562 3.075 48.0312 6.85714 48.0312H41.1429C44.925 48.0312 48 44.9562 48 41.1741V6.88839C48 3.10625 44.925 0.03125 41.1429 0.03125H6.85714ZM38.6893 9.03125L27.5679 21.7384L40.65 39.0312H30.4071L22.3929 28.542L13.2107 39.0312H8.12143L20.0143 25.4348L7.46786 9.03125H17.9679L25.2214 18.6205L33.6 9.03125H38.6893ZM34.6393 35.9884L16.4357 11.9134H13.4036L31.8107 35.9884H34.6286H34.6393Z" fill="white"/>
</svg>
