<svg width="39" height="39" viewBox="0 0 39 39" fill="none" xmlns="http://www.w3.org/2000/svg">
<path d="M24.4196 19.0482L16.3446 14.4594V23.6371L24.4196 19.0482ZM33.0714 0.03125H5.92857C2.93438 0.03125 0.5 2.46563 0.5 5.45982V32.6027C0.5 35.5969 2.93438 38.0312 5.92857 38.0312H33.0714C36.0656 38.0312 38.5 35.5969 38.5 32.6027V5.45982C38.5 2.46563 36.0656 0.03125 33.0714 0.03125ZM34.2929 11.5754C34.9375 14.0013 34.9375 19.0567 34.9375 19.0567C34.9375 19.0567 34.9375 24.1121 34.2929 26.5295C33.9366 27.8696 32.8933 28.879 31.5616 29.2353C29.1612 29.8884 19.5 29.8884 19.5 29.8884C19.5 29.8884 9.83884 29.8884 7.43839 29.2437C6.1067 28.8875 5.06339 27.8781 4.70714 26.5379C4.0625 24.1121 4.0625 19.0567 4.0625 19.0567C4.0625 19.0567 4.0625 13.9929 4.70714 11.5754C5.06339 10.2353 6.1067 9.18348 7.43839 8.82723C9.83884 8.17411 19.5 8.17411 19.5 8.17411C19.5 8.17411 29.1612 8.17411 31.5616 8.82723C32.8933 9.18348 33.9366 10.2353 34.2929 11.5754Z" fill="white"/>
</svg>
